<mxfile host="app.diagrams.net" modified="2024-04-01T18:51:49.639Z" agent="Mozilla/5.0 (Windows NT 10.0; Win64; x64) AppleWebKit/537.36 (KHTML, like Gecko) Chrome/123.0.0.0 Safari/537.36 Edg/123.0.0.0" etag="D-mzUcSG9_1NrqGvFtYc" version="24.2.1" type="device">
  <diagram id="BRt-xR91ZPTsvwnkq-qn" name="Página-1">
    <mxGraphModel dx="1155" dy="633" grid="1" gridSize="10" guides="1" tooltips="1" connect="1" arrows="1" fold="1" page="1" pageScale="1" pageWidth="827" pageHeight="1169" math="0" shadow="0">
      <root>
        <mxCell id="0" />
        <mxCell id="1" parent="0" />
        <mxCell id="shK9FmKNe2BdYEhLe8JS-1" value="Start" style="strokeWidth=2;html=1;shape=mxgraph.flowchart.start_1;whiteSpace=wrap;" parent="1" vertex="1">
          <mxGeometry x="30" y="20" width="100" height="60" as="geometry" />
        </mxCell>
        <mxCell id="zwCVlSt12UbH2DtVHV8--5" style="edgeStyle=orthogonalEdgeStyle;rounded=0;orthogonalLoop=1;jettySize=auto;html=1;entryX=0.5;entryY=0;entryDx=0;entryDy=0;" parent="1" source="zwCVlSt12UbH2DtVHV8--2" target="zwCVlSt12UbH2DtVHV8--4" edge="1">
          <mxGeometry relative="1" as="geometry" />
        </mxCell>
        <mxCell id="zwCVlSt12UbH2DtVHV8--2" value="R = Raio&amp;nbsp;&lt;div&gt;A = Altura&lt;/div&gt;" style="html=1;strokeWidth=2;shape=manualInput;whiteSpace=wrap;rounded=1;size=26;arcSize=11;" parent="1" vertex="1">
          <mxGeometry x="20" y="110" width="120" height="70" as="geometry" />
        </mxCell>
        <mxCell id="zwCVlSt12UbH2DtVHV8--3" style="edgeStyle=orthogonalEdgeStyle;rounded=0;orthogonalLoop=1;jettySize=auto;html=1;entryX=0.46;entryY=0.16;entryDx=0;entryDy=0;entryPerimeter=0;" parent="1" source="shK9FmKNe2BdYEhLe8JS-1" target="zwCVlSt12UbH2DtVHV8--2" edge="1">
          <mxGeometry relative="1" as="geometry" />
        </mxCell>
        <mxCell id="zwCVlSt12UbH2DtVHV8--8" style="edgeStyle=orthogonalEdgeStyle;rounded=0;orthogonalLoop=1;jettySize=auto;html=1;entryX=0.5;entryY=0;entryDx=0;entryDy=0;" parent="1" source="zwCVlSt12UbH2DtVHV8--4" target="zwCVlSt12UbH2DtVHV8--7" edge="1">
          <mxGeometry relative="1" as="geometry" />
        </mxCell>
        <mxCell id="zwCVlSt12UbH2DtVHV8--4" value="Diâmetro = R * R" style="rounded=1;whiteSpace=wrap;html=1;absoluteArcSize=1;arcSize=14;strokeWidth=2;" parent="1" vertex="1">
          <mxGeometry x="37" y="220" width="100" height="60" as="geometry" />
        </mxCell>
        <mxCell id="zwCVlSt12UbH2DtVHV8--12" style="edgeStyle=orthogonalEdgeStyle;rounded=0;orthogonalLoop=1;jettySize=auto;html=1;entryX=0.5;entryY=0;entryDx=0;entryDy=0;" parent="1" source="zwCVlSt12UbH2DtVHV8--7" target="zwCVlSt12UbH2DtVHV8--11" edge="1">
          <mxGeometry relative="1" as="geometry" />
        </mxCell>
        <mxCell id="zwCVlSt12UbH2DtVHV8--7" value="Pi = 3.1415 * Diâmetro * A&amp;nbsp;" style="rounded=1;whiteSpace=wrap;html=1;absoluteArcSize=1;arcSize=14;strokeWidth=2;" parent="1" vertex="1">
          <mxGeometry x="10" y="320" width="166" height="70" as="geometry" />
        </mxCell>
        <mxCell id="zwCVlSt12UbH2DtVHV8--11" value="Resultado = Volume" style="rounded=1;whiteSpace=wrap;html=1;absoluteArcSize=1;arcSize=14;strokeWidth=2;" parent="1" vertex="1">
          <mxGeometry x="27.5" y="430" width="126" height="60" as="geometry" />
        </mxCell>
        <mxCell id="zwCVlSt12UbH2DtVHV8--16" value="Mostra Volume na Tela" style="strokeWidth=2;html=1;shape=mxgraph.flowchart.display;whiteSpace=wrap;" parent="1" vertex="1">
          <mxGeometry x="20.5" y="530" width="133" height="90" as="geometry" />
        </mxCell>
        <mxCell id="zwCVlSt12UbH2DtVHV8--17" style="edgeStyle=orthogonalEdgeStyle;rounded=0;orthogonalLoop=1;jettySize=auto;html=1;entryX=0.5;entryY=0;entryDx=0;entryDy=0;entryPerimeter=0;" parent="1" source="zwCVlSt12UbH2DtVHV8--11" target="zwCVlSt12UbH2DtVHV8--16" edge="1">
          <mxGeometry relative="1" as="geometry" />
        </mxCell>
        <mxCell id="zwCVlSt12UbH2DtVHV8--19" value="End" style="strokeWidth=2;html=1;shape=mxgraph.flowchart.terminator;whiteSpace=wrap;" parent="1" vertex="1">
          <mxGeometry x="37" y="660" width="100" height="60" as="geometry" />
        </mxCell>
        <mxCell id="zwCVlSt12UbH2DtVHV8--20" style="edgeStyle=orthogonalEdgeStyle;rounded=0;orthogonalLoop=1;jettySize=auto;html=1;entryX=0.5;entryY=0;entryDx=0;entryDy=0;entryPerimeter=0;" parent="1" source="zwCVlSt12UbH2DtVHV8--16" target="zwCVlSt12UbH2DtVHV8--19" edge="1">
          <mxGeometry relative="1" as="geometry" />
        </mxCell>
        <mxCell id="IRD-E7eLaZsSmsRaUsL9-3" style="edgeStyle=orthogonalEdgeStyle;rounded=0;orthogonalLoop=1;jettySize=auto;html=1;" parent="1" source="IRD-E7eLaZsSmsRaUsL9-1" target="IRD-E7eLaZsSmsRaUsL9-2" edge="1">
          <mxGeometry relative="1" as="geometry" />
        </mxCell>
        <mxCell id="IRD-E7eLaZsSmsRaUsL9-1" value="Start" style="strokeWidth=2;html=1;shape=mxgraph.flowchart.start_1;whiteSpace=wrap;" parent="1" vertex="1">
          <mxGeometry x="380" y="20" width="100" height="60" as="geometry" />
        </mxCell>
        <mxCell id="IRD-E7eLaZsSmsRaUsL9-5" style="edgeStyle=orthogonalEdgeStyle;rounded=0;orthogonalLoop=1;jettySize=auto;html=1;" parent="1" source="IRD-E7eLaZsSmsRaUsL9-2" target="IRD-E7eLaZsSmsRaUsL9-4" edge="1">
          <mxGeometry relative="1" as="geometry" />
        </mxCell>
        <mxCell id="IRD-E7eLaZsSmsRaUsL9-2" value="A e B" style="html=1;strokeWidth=2;shape=manualInput;whiteSpace=wrap;rounded=1;size=26;arcSize=11;" parent="1" vertex="1">
          <mxGeometry x="380" y="130" width="100" height="60" as="geometry" />
        </mxCell>
        <mxCell id="IRD-E7eLaZsSmsRaUsL9-8" style="edgeStyle=orthogonalEdgeStyle;rounded=0;orthogonalLoop=1;jettySize=auto;html=1;entryX=0.5;entryY=0;entryDx=0;entryDy=0;" parent="1" source="IRD-E7eLaZsSmsRaUsL9-4" target="IRD-E7eLaZsSmsRaUsL9-7" edge="1">
          <mxGeometry relative="1" as="geometry" />
        </mxCell>
        <mxCell id="IRD-E7eLaZsSmsRaUsL9-4" value="C = A" style="shape=parallelogram;html=1;strokeWidth=2;perimeter=parallelogramPerimeter;whiteSpace=wrap;rounded=1;arcSize=12;size=0.23;" parent="1" vertex="1">
          <mxGeometry x="370" y="230" width="120" height="60" as="geometry" />
        </mxCell>
        <mxCell id="IRD-E7eLaZsSmsRaUsL9-13" style="edgeStyle=orthogonalEdgeStyle;rounded=0;orthogonalLoop=1;jettySize=auto;html=1;" parent="1" source="IRD-E7eLaZsSmsRaUsL9-7" target="IRD-E7eLaZsSmsRaUsL9-9" edge="1">
          <mxGeometry relative="1" as="geometry" />
        </mxCell>
        <mxCell id="IRD-E7eLaZsSmsRaUsL9-7" value="A = B" style="shape=parallelogram;html=1;strokeWidth=2;perimeter=parallelogramPerimeter;whiteSpace=wrap;rounded=1;arcSize=12;size=0.23;" parent="1" vertex="1">
          <mxGeometry x="370" y="330" width="120" height="60" as="geometry" />
        </mxCell>
        <mxCell id="IRD-E7eLaZsSmsRaUsL9-9" value="B = C" style="shape=parallelogram;html=1;strokeWidth=2;perimeter=parallelogramPerimeter;whiteSpace=wrap;rounded=1;arcSize=12;size=0.23;" parent="1" vertex="1">
          <mxGeometry x="370" y="430" width="120" height="60" as="geometry" />
        </mxCell>
        <mxCell id="IRD-E7eLaZsSmsRaUsL9-14" value="Mostra valor de A e B" style="strokeWidth=2;html=1;shape=mxgraph.flowchart.display;whiteSpace=wrap;" parent="1" vertex="1">
          <mxGeometry x="360" y="530" width="140" height="70" as="geometry" />
        </mxCell>
        <mxCell id="IRD-E7eLaZsSmsRaUsL9-15" style="edgeStyle=orthogonalEdgeStyle;rounded=0;orthogonalLoop=1;jettySize=auto;html=1;entryX=0.5;entryY=0;entryDx=0;entryDy=0;entryPerimeter=0;" parent="1" source="IRD-E7eLaZsSmsRaUsL9-9" target="IRD-E7eLaZsSmsRaUsL9-14" edge="1">
          <mxGeometry relative="1" as="geometry" />
        </mxCell>
        <mxCell id="IRD-E7eLaZsSmsRaUsL9-16" value="End" style="strokeWidth=2;html=1;shape=mxgraph.flowchart.terminator;whiteSpace=wrap;" parent="1" vertex="1">
          <mxGeometry x="380" y="650" width="100" height="60" as="geometry" />
        </mxCell>
        <mxCell id="IRD-E7eLaZsSmsRaUsL9-18" style="edgeStyle=orthogonalEdgeStyle;rounded=0;orthogonalLoop=1;jettySize=auto;html=1;entryX=0.5;entryY=0;entryDx=0;entryDy=0;entryPerimeter=0;" parent="1" source="IRD-E7eLaZsSmsRaUsL9-14" target="IRD-E7eLaZsSmsRaUsL9-16" edge="1">
          <mxGeometry relative="1" as="geometry" />
        </mxCell>
        <mxCell id="IRD-E7eLaZsSmsRaUsL9-19" value="Start" style="strokeWidth=2;html=1;shape=mxgraph.flowchart.start_1;whiteSpace=wrap;" parent="1" vertex="1">
          <mxGeometry x="640" y="20" width="100" height="60" as="geometry" />
        </mxCell>
        <mxCell id="IRD-E7eLaZsSmsRaUsL9-26" value="" style="edgeStyle=orthogonalEdgeStyle;rounded=0;orthogonalLoop=1;jettySize=auto;html=1;" parent="1" source="IRD-E7eLaZsSmsRaUsL9-20" target="IRD-E7eLaZsSmsRaUsL9-25" edge="1">
          <mxGeometry relative="1" as="geometry" />
        </mxCell>
        <mxCell id="IRD-E7eLaZsSmsRaUsL9-20" value="Altura Comprimento Largura" style="html=1;strokeWidth=2;shape=manualInput;whiteSpace=wrap;rounded=1;size=26;arcSize=11;" parent="1" vertex="1">
          <mxGeometry x="620" y="110" width="140" height="80" as="geometry" />
        </mxCell>
        <mxCell id="IRD-E7eLaZsSmsRaUsL9-21" style="edgeStyle=orthogonalEdgeStyle;rounded=0;orthogonalLoop=1;jettySize=auto;html=1;entryX=0.516;entryY=0.127;entryDx=0;entryDy=0;entryPerimeter=0;" parent="1" source="IRD-E7eLaZsSmsRaUsL9-19" target="IRD-E7eLaZsSmsRaUsL9-20" edge="1">
          <mxGeometry relative="1" as="geometry">
            <Array as="points">
              <mxPoint x="692" y="100" />
              <mxPoint x="692" y="100" />
            </Array>
          </mxGeometry>
        </mxCell>
        <mxCell id="IRD-E7eLaZsSmsRaUsL9-25" value="Volume = Altura * Comprimento * Largura" style="whiteSpace=wrap;html=1;strokeWidth=2;rounded=1;arcSize=11;" parent="1" vertex="1">
          <mxGeometry x="630" y="230" width="120" height="60" as="geometry" />
        </mxCell>
        <mxCell id="IRD-E7eLaZsSmsRaUsL9-28" value="Mostrar na tela o Volume da caixa" style="strokeWidth=2;html=1;shape=mxgraph.flowchart.display;whiteSpace=wrap;" parent="1" vertex="1">
          <mxGeometry x="620" y="340" width="120" height="70" as="geometry" />
        </mxCell>
        <mxCell id="IRD-E7eLaZsSmsRaUsL9-29" style="edgeStyle=orthogonalEdgeStyle;rounded=0;orthogonalLoop=1;jettySize=auto;html=1;entryX=0.592;entryY=0.047;entryDx=0;entryDy=0;entryPerimeter=0;exitX=0.514;exitY=0.991;exitDx=0;exitDy=0;exitPerimeter=0;" parent="1" source="IRD-E7eLaZsSmsRaUsL9-25" target="IRD-E7eLaZsSmsRaUsL9-28" edge="1">
          <mxGeometry relative="1" as="geometry">
            <Array as="points">
              <mxPoint x="692" y="320" />
              <mxPoint x="691" y="320" />
            </Array>
          </mxGeometry>
        </mxCell>
        <mxCell id="IRD-E7eLaZsSmsRaUsL9-33" value="End" style="strokeWidth=2;html=1;shape=mxgraph.flowchart.terminator;whiteSpace=wrap;" parent="1" vertex="1">
          <mxGeometry x="640" y="460" width="100" height="60" as="geometry" />
        </mxCell>
        <mxCell id="IRD-E7eLaZsSmsRaUsL9-34" style="edgeStyle=orthogonalEdgeStyle;rounded=0;orthogonalLoop=1;jettySize=auto;html=1;entryX=0.5;entryY=0;entryDx=0;entryDy=0;entryPerimeter=0;exitX=0.565;exitY=0.993;exitDx=0;exitDy=0;exitPerimeter=0;" parent="1" source="IRD-E7eLaZsSmsRaUsL9-28" target="IRD-E7eLaZsSmsRaUsL9-33" edge="1">
          <mxGeometry relative="1" as="geometry">
            <Array as="points">
              <mxPoint x="690" y="410" />
            </Array>
          </mxGeometry>
        </mxCell>
        <mxCell id="inIIvl7giT9T3djnt0ik-6" style="edgeStyle=orthogonalEdgeStyle;rounded=0;orthogonalLoop=1;jettySize=auto;html=1;" edge="1" parent="1" source="inIIvl7giT9T3djnt0ik-1" target="inIIvl7giT9T3djnt0ik-4">
          <mxGeometry relative="1" as="geometry" />
        </mxCell>
        <mxCell id="inIIvl7giT9T3djnt0ik-1" value="Start" style="strokeWidth=2;html=1;shape=mxgraph.flowchart.start_1;whiteSpace=wrap;" vertex="1" parent="1">
          <mxGeometry x="880" y="20" width="100" height="60" as="geometry" />
        </mxCell>
        <mxCell id="inIIvl7giT9T3djnt0ik-9" style="edgeStyle=orthogonalEdgeStyle;rounded=0;orthogonalLoop=1;jettySize=auto;html=1;entryX=0.5;entryY=0;entryDx=0;entryDy=0;" edge="1" parent="1" source="inIIvl7giT9T3djnt0ik-4" target="inIIvl7giT9T3djnt0ik-8">
          <mxGeometry relative="1" as="geometry" />
        </mxCell>
        <mxCell id="inIIvl7giT9T3djnt0ik-4" value="Altura e Base" style="html=1;strokeWidth=2;shape=manualInput;whiteSpace=wrap;rounded=1;size=26;arcSize=11;" vertex="1" parent="1">
          <mxGeometry x="860" y="105" width="140" height="80" as="geometry" />
        </mxCell>
        <mxCell id="inIIvl7giT9T3djnt0ik-11" style="edgeStyle=orthogonalEdgeStyle;rounded=0;orthogonalLoop=1;jettySize=auto;html=1;entryX=0.5;entryY=0;entryDx=0;entryDy=0;" edge="1" parent="1" source="inIIvl7giT9T3djnt0ik-8" target="inIIvl7giT9T3djnt0ik-10">
          <mxGeometry relative="1" as="geometry" />
        </mxCell>
        <mxCell id="inIIvl7giT9T3djnt0ik-8" value="Área = Altura * Base" style="whiteSpace=wrap;html=1;strokeWidth=2;rounded=1;arcSize=11;" vertex="1" parent="1">
          <mxGeometry x="870" y="230" width="120" height="60" as="geometry" />
        </mxCell>
        <mxCell id="inIIvl7giT9T3djnt0ik-10" value="Perímetro = Altura *2 + Base * 2&amp;nbsp;" style="whiteSpace=wrap;html=1;strokeWidth=2;rounded=1;arcSize=11;" vertex="1" parent="1">
          <mxGeometry x="870" y="340" width="120" height="60" as="geometry" />
        </mxCell>
        <mxCell id="inIIvl7giT9T3djnt0ik-15" style="edgeStyle=orthogonalEdgeStyle;rounded=0;orthogonalLoop=1;jettySize=auto;html=1;" edge="1" parent="1" source="inIIvl7giT9T3djnt0ik-12">
          <mxGeometry relative="1" as="geometry">
            <mxPoint x="930" y="550" as="targetPoint" />
          </mxGeometry>
        </mxCell>
        <mxCell id="inIIvl7giT9T3djnt0ik-12" value="Mostrar na tela Área e Perímetro" style="strokeWidth=2;html=1;shape=mxgraph.flowchart.display;whiteSpace=wrap;" vertex="1" parent="1">
          <mxGeometry x="870" y="450" width="120" height="70" as="geometry" />
        </mxCell>
        <mxCell id="inIIvl7giT9T3djnt0ik-13" style="edgeStyle=orthogonalEdgeStyle;rounded=0;orthogonalLoop=1;jettySize=auto;html=1;entryX=0.5;entryY=0;entryDx=0;entryDy=0;entryPerimeter=0;" edge="1" parent="1" source="inIIvl7giT9T3djnt0ik-10" target="inIIvl7giT9T3djnt0ik-12">
          <mxGeometry relative="1" as="geometry" />
        </mxCell>
        <mxCell id="inIIvl7giT9T3djnt0ik-14" value="End" style="strokeWidth=2;html=1;shape=mxgraph.flowchart.terminator;whiteSpace=wrap;" vertex="1" parent="1">
          <mxGeometry x="880" y="555" width="100" height="60" as="geometry" />
        </mxCell>
      </root>
    </mxGraphModel>
  </diagram>
</mxfile>
